<svg width="150" height="150" viewBox="0 0 150 150" fill="none" xmlns="http://www.w3.org/2000/svg">
<g id="fluent:spatula-spoon-28-regular">
<path id="Vector" d="M104.593 24.2411C102.048 26.7857 99.1069 31.1357 96.6587 36.2679C94.2105 41.3786 92.4052 46.9125 91.8748 51.7071C91.4462 55.6393 90.0105 60.1179 86.4748 63.3054L81.8569 67.4839L81.9105 67.5214L88.3391 73.0179L92.0784 68.8714C95.2712 65.3464 99.7391 63.9161 103.661 63.4768C108.455 62.9464 113.989 61.1411 119.094 58.6929C124.221 56.2393 128.566 53.3036 131.111 50.7643C134.627 47.2478 136.603 42.4784 136.603 37.5054C136.603 32.5323 134.627 27.7629 131.111 24.2464C127.594 20.7299 122.825 18.7544 117.852 18.7544C112.879 18.7544 108.109 20.7246 104.593 24.2411ZM98.0355 74.2554L94.4462 78.2304L128.303 107.164L128.416 107.271C130.157 109.013 131.538 111.08 132.481 113.355C133.423 115.63 133.908 118.068 133.908 120.53C133.908 122.993 133.423 125.431 132.481 127.706C131.538 129.981 130.157 132.048 128.416 133.789C126.675 135.53 124.608 136.912 122.333 137.854C120.058 138.796 117.619 139.281 115.157 139.281C112.695 139.281 110.256 138.796 107.981 137.854C105.706 136.912 103.639 135.53 101.898 133.789L101.791 133.682L73.8694 100.993L43.6391 134.432L43.4998 134.577C42.0106 136.115 40.2292 137.34 38.2601 138.179C36.2911 139.019 34.174 139.458 32.0333 139.468C29.8926 139.479 27.7714 139.061 25.7941 138.241C23.8169 137.42 22.0235 136.213 20.5193 134.69C19.0151 133.167 17.8303 131.358 17.0345 129.371C16.2387 127.384 15.848 125.257 15.8853 123.117C15.9226 120.977 16.3871 118.865 17.2516 116.907C18.1161 114.948 19.3631 113.182 20.9195 111.713L52.6391 83.0464H40.0445C36.1386 83.0463 32.3927 81.4951 29.6302 78.7339L9.67481 58.8C8.30607 57.4319 7.22029 55.8075 6.4795 54.0197C5.73871 52.2319 5.35742 50.3156 5.35742 48.3804C5.35742 46.4451 5.73871 44.5289 6.4795 42.741C7.22029 40.9532 8.30607 39.3288 9.67481 37.9607L32.6034 15.0321C35.3662 12.2695 39.1133 10.7174 43.0203 10.7174C46.9274 10.7174 50.6745 12.2695 53.4373 15.0321L73.3659 34.9607C74.7347 36.3288 75.8206 37.9531 76.5614 39.741C77.3023 41.5288 77.6837 43.4451 77.6837 45.3804V58.35C77.6837 59.0036 77.7355 59.6464 77.8391 60.2786L81.0909 57.3375C82.6177 55.9554 83.5712 53.6732 83.8873 50.8232C84.5409 44.8661 86.7052 38.4429 89.4052 32.7911C92.1052 27.1607 95.5123 21.9536 98.9087 18.5571C101.396 16.0699 104.349 14.0969 107.6 12.751C110.85 11.405 114.333 10.7124 117.851 10.7126C121.369 10.7129 124.852 11.406 128.102 12.7524C131.352 14.0989 134.305 16.0722 136.792 18.5598C139.279 21.0474 141.252 24.0006 142.598 27.2507C143.944 30.5008 144.637 33.9841 144.636 37.5019C144.636 41.0197 143.943 44.5029 142.596 47.7528C141.25 51.0027 139.277 53.9556 136.789 56.4429C133.398 59.8339 128.196 63.2411 122.566 65.9357C116.919 68.6411 110.496 70.8054 104.544 71.4589C101.7 71.7804 99.423 72.7286 98.0409 74.2554M62.148 87.2732C61.8334 86.8968 61.4933 86.5424 61.1302 86.2125L26.3891 117.589C24.8816 119.097 24.0347 121.141 24.0347 123.273C24.0347 125.405 24.8816 127.45 26.3891 128.957C27.8966 130.465 29.9411 131.312 32.073 131.312C34.2049 131.312 36.2495 130.465 37.757 128.957L68.6034 94.8268L62.148 87.2732ZM47.7534 20.7054C47.1315 20.0833 46.3932 19.5899 45.5807 19.2533C44.7681 18.9167 43.8972 18.7434 43.0177 18.7434C42.1381 18.7434 41.2672 18.9167 40.4546 19.2533C39.6421 19.5899 38.9038 20.0833 38.282 20.7054L15.3534 43.6339C14.7314 44.2558 14.238 44.9941 13.9013 45.8066C13.5647 46.6192 13.3914 47.4901 13.3914 48.3696C13.3914 49.2492 13.5647 50.1201 13.9013 50.9327C14.238 51.7452 14.7314 52.4835 15.3534 53.1054L35.3141 73.0446C36.5677 74.2982 38.2712 75.0054 40.0445 75.0054H52.982C55.8861 75.0046 58.7559 75.6335 61.3935 76.8488C64.0312 78.064 66.374 79.8367 68.2605 82.0446L107.689 128.207C109.698 130.217 112.423 131.346 115.265 131.347C118.107 131.347 120.832 130.219 122.842 128.21C124.851 126.201 125.981 123.476 125.981 120.634C125.982 117.792 124.853 115.067 122.844 113.057L76.6873 73.6179C74.4804 71.7336 72.708 69.3936 71.4919 66.7589C70.2758 64.1241 69.6449 61.2572 69.6427 58.3554V45.375C69.6427 43.5964 68.9355 41.8929 67.6819 40.6393L47.7534 20.7054ZM45.6962 31.9821C44.9346 31.2724 43.9272 30.8861 42.8863 30.9044C41.8454 30.9228 40.8523 31.3445 40.1161 32.0806C39.38 32.8167 38.9583 33.8099 38.9399 34.8508C38.9216 35.8917 39.3079 36.8991 40.0177 37.6607L53.4105 51.0536C53.7784 51.4483 54.2219 51.7649 54.7148 51.9845C55.2076 52.2041 55.7397 52.3222 56.2792 52.3317C56.8186 52.3413 57.3545 52.242 57.8548 52.0399C58.3551 51.8379 58.8096 51.5371 59.1911 51.1556C59.5726 50.774 59.8734 50.3196 60.0755 49.8193C60.2775 49.319 60.3768 48.7831 60.3673 48.2436C60.3577 47.7042 60.2397 47.1721 60.0201 46.6793C59.8005 46.1864 59.4838 45.7428 59.0891 45.375L45.6962 31.9821ZM26.6248 45.375C27.3782 44.6226 28.3994 44.2 29.4641 44.2C30.5288 44.2 31.55 44.6226 32.3034 45.375L45.6962 58.7679C46.091 59.1357 46.4076 59.5793 46.6272 60.0721C46.8468 60.565 46.9649 61.097 46.9744 61.6365C46.9839 62.176 46.8847 62.7118 46.6826 63.2121C46.4805 63.7124 46.1798 64.1669 45.7982 64.5484C45.4167 64.9299 44.9622 65.2307 44.4619 65.4328C43.9616 65.6349 43.4258 65.7341 42.8863 65.7246C42.3468 65.7151 41.8148 65.597 41.3219 65.3774C40.8291 65.1578 40.3855 64.8412 40.0177 64.4464L26.6248 51.0536C25.8724 50.3002 25.4498 49.279 25.4498 48.2143C25.4498 47.1495 25.8724 46.1283 26.6248 45.375ZM107.143 41.5179C107.143 40.4523 106.719 39.4303 105.966 38.6768C105.212 37.9233 104.19 37.5 103.125 37.5C102.059 37.5 101.037 37.9233 100.284 38.6768C99.5303 39.4303 99.1069 40.4523 99.1069 41.5179C99.1069 45.4251 100.659 49.1722 103.422 51.9351C106.185 54.6979 109.932 56.25 113.839 56.25C114.905 56.25 115.927 55.8267 116.68 55.0732C117.434 54.3197 117.857 53.2977 117.857 52.2321C117.857 51.1665 117.434 50.1446 116.68 49.3911C115.927 48.6376 114.905 48.2143 113.839 48.2143C110.143 48.2143 107.143 45.2143 107.143 41.5179Z" fill="#593329"/>
</g>
</svg>
